<svg xmlns="http://www.w3.org/2000/svg" xmlns:xlink="http://www.w3.org/1999/xlink" style="margin:auto;background:rgba(NaN, NaN, NaN, 0);display:block;z-index:1;position:relative" width="3000" height="400" preserveAspectRatio="xMidYMid" viewBox="0 0 3000 400">
<g transform="translate(1500,200) scale(1,1) translate(-1500,-200)"><path id="path0" d="M 1238.2756195954557 231.5582579553681
c 0 21.4182683295996 -5.240640123199902 6.1520557967998855 -11.392695919999786 6.1520557967998855
S 1215.490227755456 252.9765262849677 1215.490227755456 231.5582579553681
s 5.240640123199902 -6.1520557967998855 11.392695919999786 -6.1520557967998855
S 1238.2756195954557 210.13998962576852 1238.2756195954557 231.5582579553681
z" fill="none" stroke="none"></path>
<circle cx="0" cy="0" r="22.44364285638925" fill="#FF4E17" opacity="0.9">
  <animateMotion begin="-1.327639922902623s" dur="3.94s" repeatCount="indefinite" fill="#FF4E17">
    <mpath xlink:href="#path0" fill="#FF4E17"></mpath>
  </animateMotion>
</circle><path id="path1" d="M 699.1497845116747 197.83202516278448
c 0 28.962839585652826 -7.086652239042712 8.319113498006663 -15.405765737049375 8.319113498006663
S 668.338253037576 226.7948647484373 668.338253037576 197.83202516278448
s 7.086652239042712 -8.319113498006663 15.405765737049375 -8.319113498006663
S 699.1497845116747 168.86918557713165 699.1497845116747 197.83202516278448
z" fill="none" stroke="none"></path>
<circle cx="0" cy="0" r="18.779408685135863" fill="#FF4E17" opacity="0.9">
  <animateMotion begin="-3.8296352735090053s" dur="3.94s" repeatCount="indefinite" fill="#FF4E17">
    <mpath xlink:href="#path1" fill="#FF4E17"></mpath>
  </animateMotion>
</circle><path id="path2" d="M 650.6482485478932 293.8257774453995
c 0 19.018047311954223 -4.653352001861139 5.462630610880469 -10.115982612741607 5.462630610880469
S 630.41628332241 312.84382475735373 630.41628332241 293.8257774453995
s 4.653352001861139 -5.462630610880469 10.115982612741607 -5.462630610880469
S 650.6482485478932 274.8077301334453 650.6482485478932 293.8257774453995
z" fill="none" stroke="none"></path>
<circle cx="0" cy="0" r="21.439492586079204" fill="#FF4E17" opacity="0.9">
  <animateMotion begin="-2.6789064034487926s" dur="3.94s" repeatCount="indefinite" fill="#FF4E17">
    <mpath xlink:href="#path2" fill="#FF4E17"></mpath>
  </animateMotion>
</circle><path id="path3" d="M 2524.8646965911084 96.34062242647182
c 0 19.08653905350321 -4.6701106194741895 5.482303770687093 -10.152414390161281 5.482303770687093
S 2504.5598678107863 115.42716147997504 2504.5598678107863 96.34062242647182
s 4.6701106194741895 -5.482303770687093 10.152414390161281 -5.482303770687093
S 2524.8646965911084 77.25408337296861 2524.8646965911084 96.34062242647182
z" fill="none" stroke="none"></path>
<circle cx="0" cy="0" r="18.856418739876123" fill="#FF4E17" opacity="0.9">
  <animateMotion begin="-0.08938515669522236s" dur="3.94s" repeatCount="indefinite" fill="#FF4E17">
    <mpath xlink:href="#path3" fill="#FF4E17"></mpath>
  </animateMotion>
</circle><path id="path4" d="M 1671.325077906358 153.6405666936715
c 0 20.617831774582946 -5.044788625695826 5.922143169295102 -10.966931794990929 5.922143169295102
S 1649.3912143163764 174.25839846825446 1649.3912143163764 153.6405666936715
s 5.044788625695826 -5.922143169295102 10.966931794990929 -5.922143169295102
S 1671.325077906358 133.02273491908855 1671.325077906358 153.6405666936715
z" fill="none" stroke="none"></path>
<circle cx="0" cy="0" r="19.63144225766518" fill="#FF4E17" opacity="0.9">
  <animateMotion begin="-1.0074812547103225s" dur="3.94s" repeatCount="indefinite" fill="#FF4E17">
    <mpath xlink:href="#path4" fill="#FF4E17"></mpath>
  </animateMotion>
</circle><path id="path5" d="M 485.5938232171924 247.96189327484544
c 0 26.72021141396037 -6.537924069373281 7.674954342307766 -14.212878411681046 7.674954342307766
S 457.16806639383026 274.6821046888058 457.16806639383026 247.96189327484544
s 6.537924069373281 -7.674954342307766 14.212878411681046 -7.674954342307766
S 485.5938232171924 221.24168186088508 485.5938232171924 247.96189327484544
z" fill="none" stroke="none"></path>
<circle cx="0" cy="0" r="18.09743958327993" fill="#FF4E17" opacity="0.9">
  <animateMotion begin="-2.0129437406711572s" dur="3.94s" repeatCount="indefinite" fill="#FF4E17">
    <mpath xlink:href="#path5" fill="#FF4E17"></mpath>
  </animateMotion>
</circle><path id="path6" d="M 1470.5585421623334 154.78172847300746
c 0 32.81809758969127 -8.02996004854148 9.426474839592172 -17.45643488813365 9.426474839592172
S 1435.6456723860663 187.59982606269872 1435.6456723860663 154.78172847300746
s 8.02996004854148 -9.426474839592172 17.45643488813365 -9.426474839592172
S 1470.5585421623334 121.9636308833162 1470.5585421623334 154.78172847300746
z" fill="none" stroke="none"></path>
<circle cx="0" cy="0" r="14.362612616541856" fill="#FF4E17" opacity="0.9">
  <animateMotion begin="-0.9700885195739282s" dur="3.94s" repeatCount="indefinite" fill="#FF4E17">
    <mpath xlink:href="#path6" fill="#FF4E17"></mpath>
  </animateMotion>
</circle><path id="path7" d="M 2216.2547236006353 51.63343887500224
c 0 37.13166826015598 -9.08540819131476 10.665479181108635 -19.750887372423396 10.665479181108635
S 2176.752948855789 88.76510713515822 2176.752948855789 51.63343887500224
s 9.08540819131476 -10.665479181108635 19.750887372423396 -10.665479181108635
S 2216.2547236006353 14.501770614846258 2216.2547236006353 51.63343887500224
z" fill="none" stroke="none"></path>
<circle cx="0" cy="0" r="24.934095416918638" fill="#FF4E17" opacity="0.9">
  <animateMotion begin="-0.8986609723853762s" dur="3.94s" repeatCount="indefinite" fill="#FF4E17">
    <mpath xlink:href="#path7" fill="#FF4E17"></mpath>
  </animateMotion>
</circle><path id="path8" d="M 2746.028819370833 115.94949575022679
c 0 33.15658416364463 -8.112781231530068 9.523699706578777 -17.636480938108846 9.523699706578777
S 2710.755857494615 149.1060799138714 2710.755857494615 115.94949575022679
s 8.112781231530068 -9.523699706578777 17.636480938108846 -9.523699706578777
S 2746.028819370833 82.79291158658216 2746.028819370833 115.94949575022679
z" fill="none" stroke="none"></path>
<circle cx="0" cy="0" r="24.1780340430218" fill="#FF4E17" opacity="0.9">
  <animateMotion begin="-2.375193709241525s" dur="3.94s" repeatCount="indefinite" fill="#FF4E17">
    <mpath xlink:href="#path8" fill="#FF4E17"></mpath>
  </animateMotion>
</circle><path id="path9" d="M 1702.5924934656841 141.72370595197975
c 0 33.50170537274012 -8.19722578269173 9.622830266638118 -17.82005604932985 9.622830266638118
S 1666.9523813670244 175.22541132471986 1666.9523813670244 141.72370595197975
s 8.19722578269173 -9.622830266638118 17.82005604932985 -9.622830266638118
S 1702.5924934656841 108.22200057923963 1702.5924934656841 141.72370595197975
z" fill="none" stroke="none"></path>
<circle cx="0" cy="0" r="23.89190635486845" fill="#FF4E17" opacity="0.9">
  <animateMotion begin="-2.093044805710809s" dur="3.94s" repeatCount="indefinite" fill="#FF4E17">
    <mpath xlink:href="#path9" fill="#FF4E17"></mpath>
  </animateMotion>
</circle><path id="path10" d="M 204.65630328504443 248.07842632058316
c 0 22.800599677395606 -5.578870133830839 6.549108417975334 -12.127978551806173 6.549108417975334
S 180.4003461814321 270.8790259979788 180.4003461814321 248.07842632058316
s 5.578870133830839 -6.549108417975334 12.127978551806173 -6.549108417975334
S 204.65630328504443 225.27782664318755 204.65630328504443 248.07842632058316
z" fill="none" stroke="none"></path>
<circle cx="0" cy="0" r="13.345640802161867" fill="#FF4E17" opacity="0.9">
  <animateMotion begin="-1.2774974879427907s" dur="3.94s" repeatCount="indefinite" fill="#FF4E17">
    <mpath xlink:href="#path10" fill="#FF4E17"></mpath>
  </animateMotion>
</circle><path id="path11" d="M 1270.099782578857 201.43539449223803
c 0 30.580109251450338 -7.4823671572697625 8.783648402012332 -16.266015559282096 8.783648402012332
S 1237.5677514602928 232.01550374368838 1237.5677514602928 201.43539449223803
s 7.4823671572697625 -8.783648402012332 16.266015559282096 -8.783648402012332
S 1270.099782578857 170.85528524078768 1270.099782578857 201.43539449223803
z" fill="none" stroke="none"></path>
<circle cx="0" cy="0" r="15.265000809212628" fill="#FF4E17" opacity="0.9">
  <animateMotion begin="-1.9622650381860185s" dur="3.94s" repeatCount="indefinite" fill="#FF4E17">
    <mpath xlink:href="#path11" fill="#FF4E17"></mpath>
  </animateMotion>
</circle><path id="path12" d="M 629.1916443949964 78.71445805069717
c 0 23.209897687531694 -5.679017519289669 6.6666727400356995 -12.345690259325368 6.6666727400356995
S 604.5002638763457 101.92435573822887 604.5002638763457 78.71445805069717
s 5.679017519289669 -6.6666727400356995 12.345690259325368 -6.6666727400356995
S 629.1916443949964 55.50456036316548 629.1916443949964 78.71445805069717
z" fill="none" stroke="none"></path>
<circle cx="0" cy="0" r="19.599546848346545" fill="#FF4E17" opacity="0.9">
  <animateMotion begin="-2.9930410917923953s" dur="3.94s" repeatCount="indefinite" fill="#FF4E17">
    <mpath xlink:href="#path12" fill="#FF4E17"></mpath>
  </animateMotion>
</circle><path id="path13" d="M 428.745144324126 74.12729803610496
c 0 28.920856713865685 -7.07637983424373 8.30705458802525 -15.38343442226898 8.30705458802525
S 397.97827547958804 103.04815474997065 397.97827547958804 74.12729803610496
s 7.07637983424373 -8.30705458802525 15.38343442226898 -8.30705458802525
S 428.745144324126 45.20644132223927 428.745144324126 74.12729803610496
z" fill="none" stroke="none"></path>
<circle cx="0" cy="0" r="20.467512587247885" fill="#FF4E17" opacity="0.9">
  <animateMotion begin="-2.7792171093640223s" dur="3.94s" repeatCount="indefinite" fill="#FF4E17">
    <mpath xlink:href="#path13" fill="#FF4E17"></mpath>
  </animateMotion>
</circle><path id="path14" d="M 2602.7390663857877 262.0638910051336
c 0 27.939821161729974 -6.836339220423291 8.025267780496907 -14.861607000920198 8.025267780496907
S 2573.0158523839473 290.0037121668636 2573.0158523839473 262.0638910051336
s 6.836339220423291 -8.025267780496907 14.861607000920198 -8.025267780496907
S 2602.7390663857877 234.12406984340362 2602.7390663857877 262.0638910051336
z" fill="none" stroke="none"></path>
<circle cx="0" cy="0" r="21.596816309674736" fill="#FF4E17" opacity="0.9">
  <animateMotion begin="-2.8460466950476278s" dur="3.94s" repeatCount="indefinite" fill="#FF4E17">
    <mpath xlink:href="#path14" fill="#FF4E17"></mpath>
  </animateMotion>
</circle><path id="path15" d="M 220.83020797173162 69.8244642967651
c 0 33.8071600789056 -8.271964700157753 9.710567256706929 -17.98253195686468 9.710567256706929
S 184.86514405800227 103.6316243756707 184.86514405800227 69.8244642967651
s 8.271964700157753 -9.710567256706929 17.98253195686468 -9.710567256706929
S 220.83020797173162 36.0173042178595 220.83020797173162 69.8244642967651
z" fill="none" stroke="none"></path>
<circle cx="0" cy="0" r="17.669004717227356" fill="#FF4E17" opacity="0.9">
  <animateMotion begin="-0.8420985149492858s" dur="3.94s" repeatCount="indefinite" fill="#FF4E17">
    <mpath xlink:href="#path15" fill="#FF4E17"></mpath>
  </animateMotion>
</circle><path id="path16" d="M 1575.9408736094667 92.74577794390981
c 0 24.722894289087613 -6.0492188154150535 7.101256870269846 -13.1504756856849 7.101256870269846
S 1549.6399222380971 117.46867223299742 1549.6399222380971 92.74577794390981
s 6.0492188154150535 -7.101256870269846 13.1504756856849 -7.101256870269846
S 1575.9408736094667 68.02288365482221 1575.9408736094667 92.74577794390981
z" fill="none" stroke="none"></path>
<circle cx="0" cy="0" r="20.212239864995492" fill="#FF4E17" opacity="0.9">
  <animateMotion begin="-2.558217055919826s" dur="3.94s" repeatCount="indefinite" fill="#FF4E17">
    <mpath xlink:href="#path16" fill="#FF4E17"></mpath>
  </animateMotion>
</circle><path id="path17" d="M 1818.3109333176963 327.82685780250466
c 0 31.32653325624979 -7.665002818018564 8.99804678636962 -16.663049604388185 8.99804678636962
S 1784.98483410892 359.15339105875444 1784.98483410892 327.82685780250466
s 7.665002818018564 -8.99804678636962 16.663049604388185 -8.99804678636962
S 1818.3109333176963 296.5003245462549 1818.3109333176963 327.82685780250466
z" fill="none" stroke="none"></path>
<circle cx="0" cy="0" r="22.73598161004145" fill="#FF4E17" opacity="0.9">
  <animateMotion begin="-2.306541147020238s" dur="3.94s" repeatCount="indefinite" fill="#FF4E17">
    <mpath xlink:href="#path17" fill="#FF4E17"></mpath>
  </animateMotion>
</circle><path id="path18" d="M 2146.880254446738 239.0816554465428
c 0 32.552032144406674 -7.9648589289505685 9.350051786159364 -17.31491071510993 9.350051786159364
S 2112.2504330165184 271.6336875909495 2112.2504330165184 239.0816554465428
s 7.9648589289505685 -9.350051786159364 17.31491071510993 -9.350051786159364
S 2146.880254446738 206.52962330213614 2146.880254446738 239.0816554465428
z" fill="none" stroke="none"></path>
<circle cx="0" cy="0" r="17.502362913743717" fill="#FF4E17" opacity="0.9">
  <animateMotion begin="-0.3688528185491798s" dur="3.94s" repeatCount="indefinite" fill="#FF4E17">
    <mpath xlink:href="#path18" fill="#FF4E17"></mpath>
  </animateMotion>
</circle><path id="path19" d="M 996.1062018254567 341.86605959361935
c 0 30.42681229725441 -7.444858328051611 8.739616298147544 -16.184474626199155 8.739616298147544
S 963.7372525730583 372.29287189087376 963.7372525730583 341.86605959361935
s 7.444858328051611 -8.739616298147544 16.184474626199155 -8.739616298147544
S 996.1062018254567 311.43924729636495 996.1062018254567 341.86605959361935
z" fill="none" stroke="none"></path>
<circle cx="0" cy="0" r="19.714078859848744" fill="#FF4E17" opacity="0.9">
  <animateMotion begin="-1.225129525561129s" dur="3.94s" repeatCount="indefinite" fill="#FF4E17">
    <mpath xlink:href="#path19" fill="#FF4E17"></mpath>
  </animateMotion>
</circle><path id="path20" d="M 1590.7489188281863 305.03636965619023
c 0 27.179983710721135 -6.650421546240277 7.807016597760326 -14.457438144000603 7.807016597760326
S 1561.834042540185 332.2163533669114 1561.834042540185 305.03636965619023
s 6.650421546240277 -7.807016597760326 14.457438144000603 -7.807016597760326
S 1590.7489188281863 277.85638594546907 1590.7489188281863 305.03636965619023
z" fill="none" stroke="none"></path>
<circle cx="0" cy="0" r="20.275808159076956" fill="#FF4E17" opacity="0.9">
  <animateMotion begin="-2.824883267437211s" dur="3.94s" repeatCount="indefinite" fill="#FF4E17">
    <mpath xlink:href="#path20" fill="#FF4E17"></mpath>
  </animateMotion>
</circle><path id="path21" d="M 1085.1154954247156 319.6156631224624
c 0 25.60922039531234 -6.266085841406211 7.355839900781205 -13.621925742187415 7.355839900781205
S 1057.8716439403408 345.22488351777474 1057.8716439403408 319.6156631224624
s 6.266085841406211 -7.355839900781205 13.621925742187415 -7.355839900781205
S 1085.1154954247156 294.0064427271501 1085.1154954247156 319.6156631224624
z" fill="none" stroke="none"></path>
<circle cx="0" cy="0" r="15.695161875806043" fill="#FF4E17" opacity="0.9">
  <animateMotion begin="-2.7442629596556696s" dur="3.94s" repeatCount="indefinite" fill="#FF4E17">
    <mpath xlink:href="#path21" fill="#FF4E17"></mpath>
  </animateMotion>
</circle><path id="path22" d="M 1224.0313209533008 342.4180288271106
c 0 26.14653053261879 -6.397555343087576 7.510173663624546 -13.907729006712122 7.510173663624546
S 1196.2158629398766 368.5645593597294 1196.2158629398766 342.4180288271106
s 6.397555343087576 -7.510173663624546 13.907729006712122 -7.510173663624546
S 1224.0313209533008 316.27149829449183 1224.0313209533008 342.4180288271106
z" fill="none" stroke="none"></path>
<circle cx="0" cy="0" r="17.205982402855625" fill="#FF4E17" opacity="0.9">
  <animateMotion begin="-2.4752341578397994s" dur="3.94s" repeatCount="indefinite" fill="#FF4E17">
    <mpath xlink:href="#path22" fill="#FF4E17"></mpath>
  </animateMotion>
</circle><path id="path23" d="M 2578.6553420995524 334.59546319426215
c 0 21.543482743741208 -5.271277692617529 6.188021639159708 -11.459299331777238 6.188021639159708
S 2555.7367434359976 356.13894593800336 2555.7367434359976 334.59546319426215
s 5.271277692617529 -6.188021639159708 11.459299331777238 -6.188021639159708
S 2578.6553420995524 313.05198045052094 2578.6553420995524 334.59546319426215
z" fill="none" stroke="none"></path>
<circle cx="0" cy="0" r="19.099635687582442" fill="#FF4E17" opacity="0.9">
  <animateMotion begin="-1.321027466906592s" dur="3.94s" repeatCount="indefinite" fill="#FF4E17">
    <mpath xlink:href="#path23" fill="#FF4E17"></mpath>
  </animateMotion>
</circle><path id="path24" d="M 1297.8608507802446 227.3936965939874
c 0 33.698004906152576 -8.245256519590523 9.679214175171486 -17.924470694762007 9.679214175171486
S 1262.0119093907206 261.09170150014 1262.0119093907206 227.3936965939874
s 8.245256519590523 -9.679214175171486 17.924470694762007 -9.679214175171486
S 1297.8608507802446 193.69569168783482 1297.8608507802446 227.3936965939874
z" fill="none" stroke="none"></path>
<circle cx="0" cy="0" r="20.96092101315341" fill="#FF4E17" opacity="0.9">
  <animateMotion begin="-2.765772199928998s" dur="3.94s" repeatCount="indefinite" fill="#FF4E17">
    <mpath xlink:href="#path24" fill="#FF4E17"></mpath>
  </animateMotion>
</circle><path id="path25" d="M 2535.1102228568852 93.1666359008275
c 0 28.091575510871994 -6.873470603723998 8.068856795675998 -14.942327399399996 8.068856795675998
S 2505.2255680580856 121.25821141169949 2505.2255680580856 93.1666359008275
s 6.873470603723998 -8.068856795675998 14.942327399399996 -8.068856795675998
S 2535.1102228568852 65.07506038995551 2535.1102228568852 93.1666359008275
z" fill="none" stroke="none"></path>
<circle cx="0" cy="0" r="24.73486006926301" fill="#FF4E17" opacity="0.9">
  <animateMotion begin="-0.008982677489353365s" dur="3.94s" repeatCount="indefinite" fill="#FF4E17">
    <mpath xlink:href="#path25" fill="#FF4E17"></mpath>
  </animateMotion>
</circle><path id="path26" d="M 1714.403715439712 315.2323068450612
c 0 33.728054319666015 -8.25260903566296 9.687845389691303 -17.940454425354265 9.687845389691303
S 1678.5228065890033 348.9603611647272 1678.5228065890033 315.2323068450612
s 8.25260903566296 -9.687845389691303 17.940454425354265 -9.687845389691303
S 1714.403715439712 281.5042525253952 1714.403715439712 315.2323068450612
z" fill="none" stroke="none"></path>
<circle cx="0" cy="0" r="15.707750562961612" fill="#FF4E17" opacity="0.9">
  <animateMotion begin="-0.07618484583155775s" dur="3.94s" repeatCount="indefinite" fill="#FF4E17">
    <mpath xlink:href="#path26" fill="#FF4E17"></mpath>
  </animateMotion>
</circle><path id="path27" d="M 399.209061920753 353.3040150990818
c 0 32.47156727673409 -7.945170716647703 9.326939536934262 -17.272110253581964 9.326939536934262
S 364.6648414135891 385.77558237581593 364.6648414135891 353.3040150990818
s 7.945170716647703 -9.326939536934262 17.272110253581964 -9.326939536934262
S 399.209061920753 320.8324478223477 399.209061920753 353.3040150990818
z" fill="none" stroke="none"></path>
<circle cx="0" cy="0" r="15.662492390647817" fill="#FF4E17" opacity="0.9">
  <animateMotion begin="-3.6322932265591623s" dur="3.94s" repeatCount="indefinite" fill="#FF4E17">
    <mpath xlink:href="#path27" fill="#FF4E17"></mpath>
  </animateMotion>
</circle><path id="path28" d="M 1211.4084101944868 298.3849901456932
c 0 37.02423608713226 -9.05912159578768 10.634621003750755 -19.693742599538435 10.634621003750755
S 1172.02092499541 335.40922623282546 1172.02092499541 298.3849901456932
s 9.05912159578768 -10.634621003750755 19.693742599538435 -10.634621003750755
S 1211.4084101944868 261.360754058561 1211.4084101944868 298.3849901456932
z" fill="none" stroke="none"></path>
<circle cx="0" cy="0" r="17.544699755926906" fill="#FF4E17" opacity="0.9">
  <animateMotion begin="-3.4680380181481554s" dur="3.94s" repeatCount="indefinite" fill="#FF4E17">
    <mpath xlink:href="#path28" fill="#FF4E17"></mpath>
  </animateMotion>
</circle><path id="path29" d="M 1786.078222111796 72.51224538266102
c 0 29.710293344077666 -7.26953986078496 8.533807662660607 -15.803347523445566 8.533807662660607
S 1754.4715270649049 102.22253872673869 1754.4715270649049 72.51224538266102
s 7.26953986078496 -8.533807662660607 15.803347523445566 -8.533807662660607
S 1786.078222111796 42.80195203858335 1786.078222111796 72.51224538266102
z" fill="none" stroke="none"></path>
<circle cx="0" cy="0" r="21.248686304599314" fill="#FF4E17" opacity="0.9">
  <animateMotion begin="-3.5361714440258s" dur="3.94s" repeatCount="indefinite" fill="#FF4E17">
    <mpath xlink:href="#path29" fill="#FF4E17"></mpath>
  </animateMotion>
</circle><path id="path30" d="M 2252.5396584384257 60.78506800883024
c 0 29.120938505902206 -7.125336017401603 8.364524889993188 -15.48986090739479 8.364524889993188
S 2221.559936623636 89.90600651473244 2221.559936623636 60.78506800883024
s 7.125336017401603 -8.364524889993188 15.48986090739479 -8.364524889993188
S 2252.5396584384257 31.66412950292803 2252.5396584384257 60.78506800883024
z" fill="none" stroke="none"></path>
<circle cx="0" cy="0" r="21.408982462543943" fill="#FF4E17" opacity="0.9">
  <animateMotion begin="-0.16393432686919604s" dur="3.94s" repeatCount="indefinite" fill="#FF4E17">
    <mpath xlink:href="#path30" fill="#FF4E17"></mpath>
  </animateMotion>
</circle><path id="path31" d="M 2156.376684317063 287.07054949105867
c 0 30.528091926412507 -7.469639513909443 8.768707255458912 -16.238346769368356 8.768707255458912
S 2123.899990778326 317.5986414174712 2123.899990778326 287.07054949105867
s 7.469639513909443 -8.768707255458912 16.238346769368356 -8.768707255458912
S 2156.376684317063 256.54245756464616 2156.376684317063 287.07054949105867
z" fill="none" stroke="none"></path>
<circle cx="0" cy="0" r="16.889523432942312" fill="#FF4E17" opacity="0.9">
  <animateMotion begin="-3.694970233185666s" dur="3.94s" repeatCount="indefinite" fill="#FF4E17">
    <mpath xlink:href="#path31" fill="#FF4E17"></mpath>
  </animateMotion>
</circle><path id="path32" d="M 629.970378727708 207.15110530165654
c 0 33.87402909932218 -8.288326268983086 9.729774315762754 -18.018100584745838 9.729774315762754
S 593.9341775582162 241.02513440097871 593.9341775582162 207.15110530165654
s 8.288326268983086 -9.729774315762754 18.018100584745838 -9.729774315762754
S 629.970378727708 173.27707620233437 629.970378727708 207.15110530165654
z" fill="none" stroke="none"></path>
<circle cx="0" cy="0" r="16.61818499864419" fill="#FF4E17" opacity="0.9">
  <animateMotion begin="-0.7557833592196962s" dur="3.94s" repeatCount="indefinite" fill="#FF4E17">
    <mpath xlink:href="#path32" fill="#FF4E17"></mpath>
  </animateMotion>
</circle><path id="path33" d="M 1827.0040005476415 303.5232926375305
c 0 20.497646822735817 -5.015381669392806 5.88762195972199 -10.903003629114796 5.88762195972199
S 1805.1979932894117 324.02093946026633 1805.1979932894117 303.5232926375305
s 5.015381669392806 -5.88762195972199 10.903003629114796 -5.88762195972199
S 1827.0040005476415 283.0256458147947 1827.0040005476415 303.5232926375305
z" fill="none" stroke="none"></path>
<circle cx="0" cy="0" r="19.137118684533714" fill="#FF4E17" opacity="0.9">
  <animateMotion begin="-1.381988249112287s" dur="3.94s" repeatCount="indefinite" fill="#FF4E17">
    <mpath xlink:href="#path33" fill="#FF4E17"></mpath>
  </animateMotion>
</circle><path id="path34" d="M 2067.439895409277 214.3342297270374
c 0 21.36706525381536 -5.228111711039928 6.13734853035122 -11.365460241391148 6.13734853035122
S 2044.7089749264946 235.70129498085277 2044.7089749264946 214.3342297270374
s 5.228111711039928 -6.13734853035122 11.365460241391148 -6.13734853035122
S 2067.439895409277 192.96716447322206 2067.439895409277 214.3342297270374
z" fill="none" stroke="none"></path>
<circle cx="0" cy="0" r="18.657080384267488" fill="#FF4E17" opacity="0.9">
  <animateMotion begin="-0.7373870156218191s" dur="3.94s" repeatCount="indefinite" fill="#FF4E17">
    <mpath xlink:href="#path34" fill="#FF4E17"></mpath>
  </animateMotion>
</circle><path id="path35" d="M 437.5818855205692 263.03625642180475
c 0 35.78155354838656 -8.755060974605222 10.277680274536566 -19.03274124914179 10.277680274536566
S 399.5164030222856 298.8178099701913 399.5164030222856 263.03625642180475
s 8.755060974605222 -10.277680274536566 19.03274124914179 -10.277680274536566
S 437.5818855205692 227.25470287341818 437.5818855205692 263.03625642180475
z" fill="none" stroke="none"></path>
<circle cx="0" cy="0" r="15.5185520660211" fill="#FF4E17" opacity="0.9">
  <animateMotion begin="-0.2941200680698284s" dur="3.94s" repeatCount="indefinite" fill="#FF4E17">
    <mpath xlink:href="#path35" fill="#FF4E17"></mpath>
  </animateMotion>
</circle><path id="path36" d="M 2630.0803611337687 87.11457139007477
c 0 24.7634903211319 -6.059151887085464 7.1129174326655455 -13.17206931975101 7.1129174326655455
S 2603.736222494267 111.87806171120667 2603.736222494267 87.11457139007477
s 6.059151887085464 -7.1129174326655455 13.17206931975101 -7.1129174326655455
S 2630.0803611337687 62.351081068942875 2630.0803611337687 87.11457139007477
z" fill="none" stroke="none"></path>
<circle cx="0" cy="0" r="15.048376725615679" fill="#FF4E17" opacity="0.9">
  <animateMotion begin="-2.4670204536196945s" dur="3.94s" repeatCount="indefinite" fill="#FF4E17">
    <mpath xlink:href="#path36" fill="#FF4E17"></mpath>
  </animateMotion>
</circle><path id="path37" d="M 1188.7030701032324 38.95932074408293
c 0 26.18136825505031 -6.406079466661245 7.520180243471898 -13.926259710133142 7.520180243471898
S 1160.8505506829663 65.14068899913323 1160.8505506829663 38.95932074408293
s 6.406079466661245 -7.520180243471898 13.926259710133142 -7.520180243471898
S 1188.7030701032324 12.777952489032621 1188.7030701032324 38.95932074408293
z" fill="none" stroke="none"></path>
<circle cx="0" cy="0" r="21.391654836049618" fill="#FF4E17" opacity="0.9">
  <animateMotion begin="-3.178895658212308s" dur="3.94s" repeatCount="indefinite" fill="#FF4E17">
    <mpath xlink:href="#path37" fill="#FF4E17"></mpath>
  </animateMotion>
</circle><path id="path38" d="M 1264.4508768890403 143.6526317934394
c 0 23.924974834722786 -5.853983204240682 6.872067239760801 -12.726050444001482 6.872067239760801
S 1238.9987760010374 167.5776066281622 1238.9987760010374 143.6526317934394
s 5.853983204240682 -6.872067239760801 12.726050444001482 -6.872067239760801
S 1264.4508768890403 119.72765695871662 1264.4508768890403 143.6526317934394
z" fill="none" stroke="none"></path>
<circle cx="0" cy="0" r="22.06907916083866" fill="#FF4E17" opacity="0.9">
  <animateMotion begin="-1.1805548012890696s" dur="3.94s" repeatCount="indefinite" fill="#FF4E17">
    <mpath xlink:href="#path38" fill="#FF4E17"></mpath>
  </animateMotion>
</circle><path id="path39" d="M 1247.312039443636 372.4397859275453
c 0 25.33852257704117 -6.199851268850498 7.2780862721288475 -13.477937540979346 7.2780862721288475
S 1220.3561643616772 397.77830850458645 1220.3561643616772 372.4397859275453
s 6.199851268850498 -7.2780862721288475 13.477937540979346 -7.2780862721288475
S 1247.312039443636 347.10126335050415 1247.312039443636 372.4397859275453
z" fill="none" stroke="none"></path>
<circle cx="0" cy="0" r="20.318119551657574" fill="#FF4E17" opacity="0.9">
  <animateMotion begin="-1.85218051773727s" dur="3.94s" repeatCount="indefinite" fill="#FF4E17">
    <mpath xlink:href="#path39" fill="#FF4E17"></mpath>
  </animateMotion>
</circle><path id="path40" d="M 2648.8903985178345 342.575819452872
c 0 22.490642205966783 -5.503029475928042 6.460078080437267 -11.963107556365308 6.460078080437267
S 2624.964183405104 365.06646165883876 2624.964183405104 342.575819452872
s 5.503029475928042 -6.460078080437267 11.963107556365308 -6.460078080437267
S 2648.8903985178345 320.08517724690523 2648.8903985178345 342.575819452872
z" fill="none" stroke="none"></path>
<circle cx="0" cy="0" r="16.76439098520978" fill="#FF4E17" opacity="0.9">
  <animateMotion begin="-3.441210860950794s" dur="3.94s" repeatCount="indefinite" fill="#FF4E17">
    <mpath xlink:href="#path40" fill="#FF4E17"></mpath>
  </animateMotion>
</circle><path id="path41" d="M 1285.0696499305247 219.19933735204285
c 0 37.28888430645121 -9.123875947323167 10.71063698164024 -19.83451292896341 10.71063698164024
S 1245.4006240725978 256.48822165849407 1245.4006240725978 219.19933735204285
s 9.123875947323167 -10.71063698164024 19.83451292896341 -10.71063698164024
S 1285.0696499305247 181.91045304559162 1285.0696499305247 219.19933735204285
z" fill="none" stroke="none"></path>
<circle cx="0" cy="0" r="17.43668952937016" fill="#FF4E17" opacity="0.9">
  <animateMotion begin="-1.9280104820453985s" dur="3.94s" repeatCount="indefinite" fill="#FF4E17">
    <mpath xlink:href="#path41" fill="#FF4E17"></mpath>
  </animateMotion>
</circle><path id="path42" d="M 1929.7659057888789 327.4703494938373
c 0 33.84799789977831 -8.28195693292448 9.722297269085262 -18.00425420200974 9.722297269085262
S 1893.7573973848596 361.3183473936156 1893.7573973848596 327.4703494938373
s 8.28195693292448 -9.722297269085262 18.00425420200974 -9.722297269085262
S 1929.7659057888789 293.622351594059 1929.7659057888789 327.4703494938373
z" fill="none" stroke="none"></path>
<circle cx="0" cy="0" r="24.89781511660538" fill="#FF4E17" opacity="0.9">
  <animateMotion begin="-2.344306642029126s" dur="3.94s" repeatCount="indefinite" fill="#FF4E17">
    <mpath xlink:href="#path42" fill="#FF4E17"></mpath>
  </animateMotion>
</circle><path id="path43" d="M 1382.8825362678328 226.05606407783412
c 0 28.642049004343402 -7.008160926594662 8.226971522524169 -15.235132449118831 8.226971522524169
S 1352.4122713695954 254.6981130821775 1352.4122713695954 226.05606407783412
s 7.008160926594662 -8.226971522524169 15.235132449118831 -8.226971522524169
S 1382.8825362678328 197.41401507349073 1382.8825362678328 226.05606407783412
z" fill="none" stroke="none"></path>
<circle cx="0" cy="0" r="20.157931848837823" fill="#FF4E17" opacity="0.9">
  <animateMotion begin="-1.1348489671408877s" dur="3.94s" repeatCount="indefinite" fill="#FF4E17">
    <mpath xlink:href="#path43" fill="#FF4E17"></mpath>
  </animateMotion>
</circle><path id="path44" d="M 1103.855995097522 256.09276325259384
c 0 34.48666618227337 -8.438226831832845 9.90574454171682 -18.343971373549664 9.90574454171682
S 1067.1680523504226 290.5794294348672 1067.1680523504226 256.09276325259384
s 8.438226831832845 -9.90574454171682 18.343971373549664 -9.90574454171682
S 1103.855995097522 221.60609707032046 1103.855995097522 256.09276325259384
z" fill="none" stroke="none"></path>
<circle cx="0" cy="0" r="23.60388309537253" fill="#FF4E17" opacity="0.9">
  <animateMotion begin="-2.5078125105766413s" dur="3.94s" repeatCount="indefinite" fill="#FF4E17">
    <mpath xlink:href="#path44" fill="#FF4E17"></mpath>
  </animateMotion>
</circle><path id="path45" d="M 1839.3980184142495 309.4294143619061
c 0 24.568250878793897 -6.011380534172973 7.05683801837697 -13.068218552549943 7.05683801837697
S 1813.2615813091495 333.9976652407 1813.2615813091495 309.4294143619061
s 6.011380534172973 -7.05683801837697 13.068218552549943 -7.05683801837697
S 1839.3980184142495 284.8611634831122 1839.3980184142495 309.4294143619061
z" fill="none" stroke="none"></path>
<circle cx="0" cy="0" r="22.950695559338953" fill="#FF4E17" opacity="0.9">
  <animateMotion begin="-3.417742451980858s" dur="3.94s" repeatCount="indefinite" fill="#FF4E17">
    <mpath xlink:href="#path45" fill="#FF4E17"></mpath>
  </animateMotion>
</circle><path id="path46" d="M 572.2686023555462 32.91844142545263
c 0 35.65529222507709 -8.724167246561414 10.241413724224271 -18.965580970785684 10.241413724224271
S 534.3374404139748 68.57373365052972 534.3374404139748 32.91844142545263
s 8.724167246561414 -10.241413724224271 18.965580970785684 -10.241413724224271
S 572.2686023555462 -2.736850799624463 572.2686023555462 32.91844142545263
z" fill="none" stroke="none"></path>
<circle cx="0" cy="0" r="20.27576568171861" fill="#FF4E17" opacity="0.9">
  <animateMotion begin="-2.44970002351589s" dur="3.94s" repeatCount="indefinite" fill="#FF4E17">
    <mpath xlink:href="#path46" fill="#FF4E17"></mpath>
  </animateMotion>
</circle><path id="path47" d="M 1537.793117828117 324.61913385734397
c 0 32.41999335874983 -7.9325515665026165 9.312125751981334 -17.24467731848395 9.312125751981334
S 1503.3037631911488 357.0391272160938 1503.3037631911488 324.61913385734397
s 7.9325515665026165 -9.312125751981334 17.24467731848395 -9.312125751981334
S 1537.793117828117 292.19914049859415 1537.793117828117 324.61913385734397
z" fill="none" stroke="none"></path>
<circle cx="0" cy="0" r="15.720255219936288" fill="#FF4E17" opacity="0.9">
  <animateMotion begin="-2.572323503497523s" dur="3.94s" repeatCount="indefinite" fill="#FF4E17">
    <mpath xlink:href="#path47" fill="#FF4E17"></mpath>
  </animateMotion>
</circle><path id="path48" d="M 706.9218028370525 199.07182074841762
c 0 37.58195262758088 -9.195584153557023 10.794816180262595 -19.99040033381962 10.794816180262595
S 666.9410021694133 236.6537733759985 666.9410021694133 199.07182074841762
s 9.195584153557023 -10.794816180262595 19.99040033381962 -10.794816180262595
S 706.9218028370525 161.48986812083675 706.9218028370525 199.07182074841762
z" fill="none" stroke="none"></path>
<circle cx="0" cy="0" r="12.515459074855462" fill="#FF4E17" opacity="0.9">
  <animateMotion begin="-2.9806670983957706s" dur="3.94s" repeatCount="indefinite" fill="#FF4E17">
    <mpath xlink:href="#path48" fill="#FF4E17"></mpath>
  </animateMotion>
</circle><path id="path49" d="M 2590.9243301310325 79.9403022942662
c 0 22.472019089586386 -5.498472755962625 6.4547288874343876 -11.953201643397014 6.4547288874343876
S 2567.017926844239 102.41232138385259 2567.017926844239 79.9403022942662
s 5.498472755962625 -6.4547288874343876 11.953201643397014 -6.4547288874343876
S 2590.9243301310325 57.46828320467982 2590.9243301310325 79.9403022942662
z" fill="none" stroke="none"></path>
<circle cx="0" cy="0" r="13.898080461731825" fill="#FF4E17" opacity="0.9">
  <animateMotion begin="-0.454354998187679s" dur="3.94s" repeatCount="indefinite" fill="#FF4E17">
    <mpath xlink:href="#path49" fill="#FF4E17"></mpath>
  </animateMotion>
</circle><path id="path50" d="M 457.12002435403315 203.42247853345796
c 0 31.04447186075303 -7.595987795716166 8.917029151492892 -16.51301694720906 8.917029151492892
S 424.09399045961504 234.46695039421098 424.09399045961504 203.42247853345796
s 7.595987795716166 -8.917029151492892 16.51301694720906 -8.917029151492892
S 457.12002435403315 172.37800667270494 457.12002435403315 203.42247853345796
z" fill="none" stroke="none"></path>
<circle cx="0" cy="0" r="19.651002838441208" fill="#FF4E17" opacity="0.9">
  <animateMotion begin="-2.428580427147506s" dur="3.94s" repeatCount="indefinite" fill="#FF4E17">
    <mpath xlink:href="#path50" fill="#FF4E17"></mpath>
  </animateMotion>
</circle><path id="path51" d="M 1888.9574213452406 329.55645403316174
c 0 23.413205844846516 -5.728763132249679 6.7250697639452754 -12.453832896194953 6.7250697639452754
S 1864.049755552851 352.96965987800826 1864.049755552851 329.55645403316174
s 5.728763132249679 -6.7250697639452754 12.453832896194953 -6.7250697639452754
S 1888.9574213452406 306.1432481883152 1888.9574213452406 329.55645403316174
z" fill="none" stroke="none"></path>
<circle cx="0" cy="0" r="18.526019889067395" fill="#FF4E17" opacity="0.9">
  <animateMotion begin="-2.6101297710956026s" dur="3.94s" repeatCount="indefinite" fill="#FF4E17">
    <mpath xlink:href="#path51" fill="#FF4E17"></mpath>
  </animateMotion>
</circle><path id="path52" d="M 213.1583719836428 278.3641214575904
c 0 20.284512436453955 -4.963231766366392 5.826402508343158 -10.789634274709549 5.826402508343158
S 191.5791034342237 298.64863389404434 191.5791034342237 278.3641214575904
s 4.963231766366392 -5.826402508343158 10.789634274709549 -5.826402508343158
S 213.1583719836428 258.07960902113643 213.1583719836428 278.3641214575904
z" fill="none" stroke="none"></path>
<circle cx="0" cy="0" r="24.386254529477576" fill="#FF4E17" opacity="0.9">
  <animateMotion begin="-1.5461048667036814s" dur="3.94s" repeatCount="indefinite" fill="#FF4E17">
    <mpath xlink:href="#path52" fill="#FF4E17"></mpath>
  </animateMotion>
</circle><path id="path53" d="M 48.901494503448184 119.02579085588062
c 0 23.539403275045373 -5.759641226872803 6.761317961981118 -12.520959188853922 6.761317961981118
S 23.85957612574034 142.565194130926 23.85957612574034 119.02579085588062
s 5.759641226872803 -6.761317961981118 12.520959188853922 -6.761317961981118
S 48.901494503448184 95.48638758083524 48.901494503448184 119.02579085588062
z" fill="none" stroke="none"></path>
<circle cx="0" cy="0" r="22.98526996457245" fill="#FF4E17" opacity="0.9">
  <animateMotion begin="-3.0495003113790564s" dur="3.94s" repeatCount="indefinite" fill="#FF4E17">
    <mpath xlink:href="#path53" fill="#FF4E17"></mpath>
  </animateMotion>
</circle><path id="path54" d="M 359.3723892837712 102.74204843323461
c 0 31.207273537702886 -7.635822248586876 8.963791335297637 -16.599613583884512 8.963791335297637
S 326.17316211600223 133.9493219709375 326.17316211600223 102.74204843323461
s 7.635822248586876 -8.963791335297637 16.599613583884512 -8.963791335297637
S 359.3723892837712 71.53477489553173 359.3723892837712 102.74204843323461
z" fill="none" stroke="none"></path>
<circle cx="0" cy="0" r="15.935233747261746" fill="#FF4E17" opacity="0.9">
  <animateMotion begin="-1.4430610769142318s" dur="3.94s" repeatCount="indefinite" fill="#FF4E17">
    <mpath xlink:href="#path54" fill="#FF4E17"></mpath>
  </animateMotion>
</circle><path id="path55" d="M 1610.6455031080343 41.02829040085824
c 0 34.725492641736935 -8.496663093190952 9.974343631137206 -18.471006724328156 9.974343631137206
S 1573.703489659378 75.75378304259517 1573.703489659378 41.02829040085824
s 8.496663093190952 -9.974343631137206 18.471006724328156 -9.974343631137206
S 1610.6455031080343 6.3027977591213045 1610.6455031080343 41.02829040085824
z" fill="none" stroke="none"></path>
<circle cx="0" cy="0" r="16.13653632106839" fill="#FF4E17" opacity="0.9">
  <animateMotion begin="-0.5223214651462068s" dur="3.94s" repeatCount="indefinite" fill="#FF4E17">
    <mpath xlink:href="#path55" fill="#FF4E17"></mpath>
  </animateMotion>
</circle><path id="path56" d="M 312.52373391338574 368.77196486243196
c 0 21.388951718963423 -5.233466909959135 6.143635068212898 -11.377101978172032 6.143635068212898
S 289.76952995704164 390.1609165813954 289.76952995704164 368.77196486243196
s 5.233466909959135 -6.143635068212898 11.377101978172032 -6.143635068212898
S 312.52373391338574 347.38301314346853 312.52373391338574 368.77196486243196
z" fill="none" stroke="none"></path>
<circle cx="0" cy="0" r="16.373378159949176" fill="#FF4E17" opacity="0.9">
  <animateMotion begin="-3.339075756939391s" dur="3.94s" repeatCount="indefinite" fill="#FF4E17">
    <mpath xlink:href="#path56" fill="#FF4E17"></mpath>
  </animateMotion>
</circle><path id="path57" d="M 544.970740804128 142.9678022179015
c 0 28.985011834232388 -7.092077363695158 8.325482122598665 -15.417559486293824 8.325482122598665
S 514.1356218315403 171.95281405213387 514.1356218315403 142.9678022179015
s 7.092077363695158 -8.325482122598665 15.417559486293824 -8.325482122598665
S 544.970740804128 113.98279038366911 544.970740804128 142.9678022179015
z" fill="none" stroke="none"></path>
<circle cx="0" cy="0" r="23.584583250668782" fill="#FF4E17" opacity="0.9">
  <animateMotion begin="-2.2121538566938064s" dur="3.94s" repeatCount="indefinite" fill="#FF4E17">
    <mpath xlink:href="#path57" fill="#FF4E17"></mpath>
  </animateMotion>
</circle><path id="path58" d="M 636.4904510071336 113.93155416639387
c 0 27.347356574502346 -6.691374480995254 7.855091782037908 -14.546466263033162 7.855091782037908
S 607.3975184810673 141.2789107408962 607.3975184810673 113.93155416639387
s 6.691374480995254 -7.855091782037908 14.546466263033162 -7.855091782037908
S 636.4904510071336 86.58419759189152 636.4904510071336 113.93155416639387
z" fill="none" stroke="none"></path>
<circle cx="0" cy="0" r="16.56075057368734" fill="#FF4E17" opacity="0.9">
  <animateMotion begin="-2.9537810659939323s" dur="3.94s" repeatCount="indefinite" fill="#FF4E17">
    <mpath xlink:href="#path58" fill="#FF4E17"></mpath>
  </animateMotion>
</circle><path id="path59" d="M 1500.1477651822906 179.77988150412557
c 0 23.030199317371604 -5.635048769144116 6.615057250734397 -12.250106019878512 6.615057250734397
S 1475.6475531425335 202.81008082149717 1475.6475531425335 179.77988150412557
s 5.635048769144116 -6.615057250734397 12.250106019878512 -6.615057250734397
S 1500.1477651822906 156.74968218675397 1500.1477651822906 179.77988150412557
z" fill="none" stroke="none"></path>
<circle cx="0" cy="0" r="20.280938520853432" fill="#FF4E17" opacity="0.9">
  <animateMotion begin="-1.7071130109672166s" dur="3.94s" repeatCount="indefinite" fill="#FF4E17">
    <mpath xlink:href="#path59" fill="#FF4E17"></mpath>
  </animateMotion>
</circle><path id="path60" d="M 1932.7122865327917 137.20282271497777
c 0 34.12627948775676 -8.350047108706441 9.802229214568433 -18.152276323274876 9.802229214568433
S 1896.4077338862419 171.32910220273453 1896.4077338862419 137.20282271497777
s 8.350047108706441 -9.802229214568433 18.152276323274876 -9.802229214568433
S 1932.7122865327917 103.07654322722101 1932.7122865327917 137.20282271497777
z" fill="none" stroke="none"></path>
<circle cx="0" cy="0" r="15.273640923349777" fill="#FF4E17" opacity="0.9">
  <animateMotion begin="-2.2320597722319957s" dur="3.94s" repeatCount="indefinite" fill="#FF4E17">
    <mpath xlink:href="#path60" fill="#FF4E17"></mpath>
  </animateMotion>
</circle><path id="path61" d="M 2440.6185210795243 207.53564061297982
c 0 29.196546323631956 -7.143835802590797 8.386242029128328 -15.530077831719124 8.386242029128328
S 2409.558365416086 236.73218693661178 2409.558365416086 207.53564061297982
s 7.143835802590797 -8.386242029128328 15.530077831719124 -8.386242029128328
S 2440.6185210795243 178.33909428934786 2440.6185210795243 207.53564061297982
z" fill="none" stroke="none"></path>
<circle cx="0" cy="0" r="14.853795855750818" fill="#FF4E17" opacity="0.9">
  <animateMotion begin="-2.7603067976462268s" dur="3.94s" repeatCount="indefinite" fill="#FF4E17">
    <mpath xlink:href="#path61" fill="#FF4E17"></mpath>
  </animateMotion>
</circle><path id="path62" d="M 327.05520026198707 129.07401961044198
c 0 34.71792775139605 -8.494812109384139 9.97217073710312 -18.46698284648726 9.97217073710312
S 290.12123456901253 163.79194736183803 290.12123456901253 129.07401961044198
s 8.494812109384139 -9.97217073710312 18.46698284648726 -9.97217073710312
S 327.05520026198707 94.35609185904593 327.05520026198707 129.07401961044198
z" fill="none" stroke="none"></path>
<circle cx="0" cy="0" r="22.853556116932303" fill="#FF4E17" opacity="0.9">
  <animateMotion begin="-2.4566645423986486s" dur="3.94s" repeatCount="indefinite" fill="#FF4E17">
    <mpath xlink:href="#path62" fill="#FF4E17"></mpath>
  </animateMotion>
</circle><path id="path63" d="M 2166.307771721301 167.98146097241164
c 0 27.83630579927688 -6.811010993440087 7.995534644473146 -14.806545637913233 7.995534644473146
S 2136.6946804454747 195.81776677168853 2136.6946804454747 167.98146097241164
s 6.811010993440087 -7.995534644473146 14.806545637913233 -7.995534644473146
S 2166.307771721301 140.14515517313475 2166.307771721301 167.98146097241164
z" fill="none" stroke="none"></path>
<circle cx="0" cy="0" r="13.05712995755583" fill="#FF4E17" opacity="0.9">
  <animateMotion begin="-1.1028474287644179s" dur="3.94s" repeatCount="indefinite" fill="#FF4E17">
    <mpath xlink:href="#path63" fill="#FF4E17"></mpath>
  </animateMotion>
</circle><path id="path64" d="M 1764.4427799806456 213.16950341089768
c 0 21.124182349640975 -5.168682915337684 6.067584291918152 -11.236267207255837 6.067584291918152
S 1741.9702455661338 234.29368576053866 1741.9702455661338 213.16950341089768
s 5.168682915337684 -6.067584291918152 11.236267207255837 -6.067584291918152
S 1764.4427799806456 192.0453210612567 1764.4427799806456 213.16950341089768
z" fill="none" stroke="none"></path>
<circle cx="0" cy="0" r="16.62473033514497" fill="#FF4E17" opacity="0.9">
  <animateMotion begin="-0.8331862734079006s" dur="3.94s" repeatCount="indefinite" fill="#FF4E17">
    <mpath xlink:href="#path64" fill="#FF4E17"></mpath>
  </animateMotion>
</circle><path id="path65" d="M 2386.432925003826 354.31183554017093
c 0 24.05251256711667 -5.885189245145567 6.908700418214362 -12.79388966335993 6.908700418214362
S 2360.845145677106 378.3643481072876 2360.845145677106 354.31183554017093
s 5.885189245145567 -6.908700418214362 12.79388966335993 -6.908700418214362
S 2386.432925003826 330.2593229730543 2386.432925003826 354.31183554017093
z" fill="none" stroke="none"></path>
<circle cx="0" cy="0" r="16.625056389221477" fill="#FF4E17" opacity="0.9">
  <animateMotion begin="-0.5111413155789831s" dur="3.94s" repeatCount="indefinite" fill="#FF4E17">
    <mpath xlink:href="#path65" fill="#FF4E17"></mpath>
  </animateMotion>
</circle><path id="path66" d="M 2292.4697583020948 64.6325926159927
c 0 35.041313693165705 -8.573938456838416 10.065058188462489 -18.638996645300907 10.065058188462489
S 2255.1917650114933 99.67390630915841 2255.1917650114933 64.6325926159927
s 8.573938456838416 -10.065058188462489 18.638996645300907 -10.065058188462489
S 2292.4697583020948 29.591278922827 2292.4697583020948 64.6325926159927
z" fill="none" stroke="none"></path>
<circle cx="0" cy="0" r="16.08175319610072" fill="#FF4E17" opacity="0.9">
  <animateMotion begin="-0.6250683830126877s" dur="3.94s" repeatCount="indefinite" fill="#FF4E17">
    <mpath xlink:href="#path66" fill="#FF4E17"></mpath>
  </animateMotion>
</circle><path id="path67" d="M 2519.0831858762394 90.24360675866883
c 0 22.56640593707365 -5.521567410135042 6.481840003202007 -12.003407413337047 6.481840003202007
S 2495.0763710495658 112.81001269574249 2495.0763710495658 90.24360675866883
s 5.521567410135042 -6.481840003202007 12.003407413337047 -6.481840003202007
S 2519.0831858762394 67.67720082159518 2519.0831858762394 90.24360675866883
z" fill="none" stroke="none"></path>
<circle cx="0" cy="0" r="16.669671045001493" fill="#FF4E17" opacity="0.9">
  <animateMotion begin="-2.7219473545711295s" dur="3.94s" repeatCount="indefinite" fill="#FF4E17">
    <mpath xlink:href="#path67" fill="#FF4E17"></mpath>
  </animateMotion>
</circle></g>
</svg>